<svg width="60" height="60" viewBox="0 0 60 60" fill="none" xmlns="http://www.w3.org/2000/svg">
<path d="M30 0C24.0666 0 18.2664 1.75947 13.3329 5.05591C8.39943 8.35235 4.55426 13.0377 2.28363 18.5195C0.0129985 24.0013 -0.581101 30.0333 0.576455 35.8527C1.73401 41.6721 4.59123 47.0176 8.78681 51.2132C12.9824 55.4088 18.3279 58.266 24.1473 59.4235C29.9667 60.5811 35.9987 59.987 41.4805 57.7164C46.9623 55.4457 51.6476 51.6006 54.9441 46.6671C58.2405 41.7336 60 35.9334 60 30C59.9916 22.0461 56.8282 14.4203 51.2039 8.79607C45.5797 3.1718 37.9539 0.00839948 30 0ZM36.2481 39.9058C36.4625 40.1202 36.6326 40.3747 36.7486 40.6548C36.8646 40.935 36.9244 41.2352 36.9244 41.5385C36.9244 41.8417 36.8646 42.1419 36.7486 42.4221C36.6326 42.7022 36.4625 42.9567 36.2481 43.1711C36.0337 43.3856 35.7791 43.5556 35.499 43.6717C35.2189 43.7877 34.9186 43.8474 34.6154 43.8474C34.3122 43.8474 34.0119 43.7877 33.7318 43.6717C33.4516 43.5556 33.1971 43.3856 32.9827 43.1711L21.4442 31.6327C21.2297 31.4184 21.0595 31.1639 20.9433 30.8837C20.8272 30.6036 20.7674 30.3033 20.7674 30C20.7674 29.6967 20.8272 29.3964 20.9433 29.1163C21.0595 28.8361 21.2297 28.5816 21.4442 28.3673L32.9827 16.8288C33.1971 16.6144 33.4516 16.4444 33.7318 16.3283C34.0119 16.2123 34.3122 16.1526 34.6154 16.1526C34.9186 16.1526 35.2189 16.2123 35.499 16.3283C35.7791 16.4444 36.0337 16.6144 36.2481 16.8288C36.4625 17.0432 36.6326 17.2978 36.7486 17.5779C36.8646 17.8581 36.9244 18.1583 36.9244 18.4615C36.9244 18.7648 36.8646 19.065 36.7486 19.3451C36.6326 19.6253 36.4625 19.8798 36.2481 20.0942L26.3394 30L36.2481 39.9058Z" fill="#C99E5B"/>
</svg>
